<svg width="18" height="18" viewBox="0 0 18 18" fill="none" xmlns="http://www.w3.org/2000/svg">
    <g clip-path="url(#clip0_876_335)">
        <path d="M1.6875 10.125C1.6875 10.4344 1.94062 10.6875 2.25 10.6875L15.75 10.6875C16.0594 10.6875 16.3125 10.4344 16.3125 10.125L16.3125 2.25C16.3125 1.94062 16.0594 1.6875 15.75 1.6875L2.25 1.6875C1.94063 1.6875 1.6875 1.94062 1.6875 2.25L1.6875 10.125ZM2.25 12.375C1.00898 12.375 5.79961e-07 11.366 6.88454e-07 10.125L1.37691e-06 2.25C1.4854e-06 1.00898 1.00899 -1.4854e-06 2.25 -1.37691e-06L15.75 -1.96701e-07C16.991 -8.82082e-08 18 1.00898 18 2.25L18 10.125C18 11.366 16.991 12.375 15.75 12.375L2.25 12.375ZM2.53125 15.1875C2.06367 15.1875 1.6875 14.8113 1.6875 14.3437C1.6875 13.8762 2.06367 13.5 2.53125 13.5L15.4688 13.5C15.9363 13.5 16.3125 13.8762 16.3125 14.3437C16.3125 14.8113 15.9363 15.1875 15.4688 15.1875L2.53125 15.1875ZM4.21875 18C3.75117 18 3.375 17.6238 3.375 17.1562C3.375 16.6887 3.75117 16.3125 4.21875 16.3125L13.7813 16.3125C14.2488 16.3125 14.625 16.6887 14.625 17.1562C14.625 17.6238 14.2488 18 13.7812 18L4.21875 18Z" fill="#4D4D4D"/>
    </g>
    <defs>
        <clipPath id="clip0_876_335">
            <rect width="18" height="18" fill="white" transform="translate(18 18) rotate(-180)"/>
        </clipPath>
    </defs>
</svg>
