<svg width="12" height="13" viewBox="0 0 12 13" fill="none" xmlns="http://www.w3.org/2000/svg">
    <path d="M6.29687 1.21875H5.07812V5.6875H3.85937V1.49043C3.25254 1.84082 2.84375 2.49844 2.84375 3.25V5.6875H1.625V3.25C1.625 1.45488 3.07988 0 4.875 0H6.5C8.29512 0 9.75 1.45488 9.75 3.25V5.6875H8.53125V3.25C8.53125 2.49844 8.12246 1.84082 7.51562 1.49043V5.6875H6.29687V1.21875ZM1.70371 7.71875L1.24668 8.9375H10.1283L9.67129 7.71875H1.70371ZM0.561133 7.28965C0.738867 6.81484 1.19336 6.5 1.70117 6.5H9.67129C10.1791 6.5 10.6336 6.81484 10.8113 7.28965L11.2988 8.59219C11.3471 8.72168 11.3725 8.85879 11.3725 8.99844C11.3725 9.51641 11.0297 9.95566 10.56 10.1029V12.3881C10.56 12.7258 10.2883 12.9975 9.95059 12.9975C9.61289 12.9975 9.34121 12.7258 9.34121 12.3881V10.1562H2.03125V12.3906C2.03125 12.7283 1.75957 13 1.42187 13C1.08418 13 0.8125 12.7283 0.8125 12.3906V10.1055C0.342773 9.9582 0 9.51895 0 9.00098C0 8.86133 0.0253906 8.72422 0.0736328 8.59473L0.561133 7.29219V7.28965Z" fill="#EE6200"/>
</svg>