<svg width="14" height="12" viewBox="0 0 14 12" fill="none" xmlns="http://www.w3.org/2000/svg">
    <g clip-path="url(#clip0_441_9439)">
        <path d="M7.24219 2.48438C7.50938 2.32031 7.6875 2.02266 7.6875 1.6875C7.6875 1.16953 7.26797 0.75 6.75 0.75C6.23203 0.75 5.8125 1.16953 5.8125 1.6875C5.8125 2.025 5.99062 2.32031 6.25781 2.48438L6.12188 2.75625L4.91484 5.17031C4.70156 5.59688 4.14844 5.71875 3.77578 5.42109L2.08828 4.07109L1.6875 3.75C1.80469 3.59297 1.875 3.39844 1.875 3.1875C1.875 2.66953 1.45547 2.25 0.9375 2.25C0.419531 2.25 0 2.66953 0 3.1875C0 3.70547 0.419531 4.125 0.9375 4.125C0.942187 4.125 0.949219 4.125 0.953906 4.125L1.05703 4.68516L2.025 10.0172C2.15391 10.7297 2.775 11.25 3.50156 11.25H9.99844C10.7227 11.25 11.3438 10.732 11.475 10.0172L12.4453 4.68516L12.5484 4.125C12.5531 4.125 12.5602 4.125 12.5648 4.125C13.0828 4.125 13.5023 3.70547 13.5023 3.1875C13.5023 2.66953 13.0828 2.25 12.5648 2.25C12.0469 2.25 11.6273 2.66953 11.6273 3.1875C11.6273 3.39844 11.6977 3.59297 11.8148 3.75L11.4141 4.07109L9.72656 5.42109C9.35391 5.71875 8.80078 5.59688 8.5875 5.17031L7.37812 2.75859L7.24219 2.48438ZM3.13359 9.81797L2.39531 5.75625L3.07266 6.29766C4.00547 7.04297 5.38828 6.74062 5.92031 5.67188L6.75 4.01484L7.57969 5.67188C8.11406 6.74062 9.49687 7.04297 10.4273 6.29766L11.1047 5.75625L10.3664 9.81797C10.3336 9.99609 10.1789 10.125 9.99844 10.125H3.50156C3.32109 10.125 3.16406 9.99609 3.13359 9.81797Z" fill="#EE6200"/>
    </g>
    <defs>
        <clipPath id="clip0_441_9439">
            <rect width="13.5" height="12" fill="white"/>
        </clipPath>
    </defs>
</svg>
