<svg width="14" height="10" viewBox="0 0 14 10" fill="none" xmlns="http://www.w3.org/2000/svg">
    <path d="M5.90625 0C5.54258 0 5.25 0.278646 5.25 0.625C5.25 0.971354 5.54258 1.25 5.90625 1.25H6.34375V2.11719C3.27031 2.42708 0.875 4.90625 0.875 7.91667H2.1875C2.1875 5.38542 4.34219 3.33333 7 3.33333C9.65781 3.33333 11.8125 5.38542 11.8125 7.91667H13.125C13.125 4.90625 10.7297 2.42708 7.65625 2.11719V1.25H8.09375C8.45742 1.25 8.75 0.971354 8.75 0.625C8.75 0.278646 8.45742 0 8.09375 0H7H5.90625ZM0.65625 8.75C0.292578 8.75 0 9.02865 0 9.375C0 9.72135 0.292578 10 0.65625 10H13.3438C13.7074 10 14 9.72135 14 9.375C14 9.02865 13.7074 8.75 13.3438 8.75H0.65625Z" fill="#EE6200"/>
</svg>