<svg width="80" height="80" viewBox="0 0 80 80" fill="none" xmlns="http://www.w3.org/2000/svg">
    <circle cx="40" cy="40" r="40" fill="#FFE1CC"/>
    <path d="M40 28.8572L33.2237 40.1509C32.6225 41.1584 31.4118 41.6378 30.2825 41.3128L19.2 38.1441V54.4103C19.2 56.1978 20.4187 57.7578 22.1575 58.1966L38.7406 62.3403C39.5693 62.5516 40.4387 62.5516 41.2593 62.3403L57.8424 58.1966C59.5812 57.7659 60.7999 56.2059 60.7999 54.4103V38.1441L49.7175 41.3128C48.5881 41.6378 47.3774 41.1584 46.7762 40.1509L40 28.8572Z" fill="white"/>
    <path d="M15.3976 33.8541C14.6664 35.3085 15.4464 37.0716 17.0064 37.5185L30.2745 41.3129C31.4039 41.6379 32.6145 41.1585 33.2157 40.151L40.0001 28.8572L20.1101 26.371C19.5657 26.306 19.0295 26.5904 18.7857 27.0779L15.3976 33.8541ZM64.5945 33.8541L61.2145 27.0779C60.9707 26.5822 60.4345 26.2979 59.8901 26.371L40.0001 28.8572L46.7764 40.151C47.3776 41.1585 48.5882 41.6379 49.7176 41.3129L62.9857 37.5185C64.5539 37.0716 65.3257 35.3085 64.5945 33.8541Z" fill="#CC5400"/>
    <path d="M31.8286 20.2705L26.6286 14.3277" stroke="#CC5400" stroke-width="3" stroke-linecap="round"/>
    <path d="M48.7395 19.5837L54.3233 13.9999" stroke="#CC5400" stroke-width="3" stroke-linecap="round"/>
    <path d="M40.7056 22.2954L40.9563 14.4027" stroke="#CC5400" stroke-width="3" stroke-linecap="round"/>
</svg>