<svg width="130" height="120" viewBox="0 0 130 120" fill="none" xmlns="http://www.w3.org/2000/svg">
    <g clip-path="url(#clip0_457_14488)">
        <path d="M114.958 82.6413L113.196 88.3791H107.714H107.613H107.026H106.2C105.746 88.3791 105.344 88.6761 105.199 89.1192C105.053 89.5623 105.194 90.0511 105.552 90.3389L106.2 90.8643L106.664 91.2389L106.743 91.3028L111.321 94.9895L109.555 100.746L109.506 100.905L109.295 101.582L109.074 102.299C108.933 102.756 109.096 103.258 109.476 103.532C109.855 103.806 110.367 103.793 110.733 103.5L111.307 103.039L111.85 102.605L111.978 102.5L116.441 98.9045V95.1996V87.4609V80.3389C115.977 80.3389 115.571 80.6495 115.43 81.1018L115.205 81.8418L115.002 82.4951L114.958 82.6413Z" fill="#FFC399"/>
        <path d="M117.924 82.6413L119.689 88.3791H125.167H125.268H125.855H126.681C127.135 88.3791 127.537 88.6761 127.683 89.1192C127.828 89.5623 127.687 90.0511 127.33 90.3389L126.681 90.8643L126.217 91.2389L126.138 91.3028L121.556 94.9895L123.326 100.746L123.375 100.905L123.582 101.582L123.803 102.299C123.944 102.756 123.781 103.258 123.401 103.532C123.022 103.806 122.51 103.793 122.143 103.5L121.57 103.039L121.031 102.6L120.903 102.495L116.441 98.9045V95.1996V87.4609V80.3389C116.904 80.3389 117.31 80.6495 117.451 81.1018L117.677 81.8418L117.88 82.4951L117.924 82.6413Z" fill="#FFC399"/>
    </g>
    <g clip-path="url(#clip1_457_14488)">
        <path d="M63.0931 2.30244L61.332 8.04025H55.85H55.7485H55.1615H54.3361C53.8815 8.04025 53.4798 8.3372 53.3341 8.78032C53.1885 9.22345 53.3297 9.71226 53.6872 10.0001L54.3361 10.5254L54.7995 10.9L54.879 10.964L59.4561 14.6506L57.6906 20.4067L57.642 20.5666L57.4302 21.2427L57.2095 21.9599C57.0683 22.4168 57.2316 22.9193 57.6112 23.1934C57.9907 23.4675 58.5027 23.4538 58.8691 23.1614L59.4429 22.7L59.9858 22.266L60.1138 22.1609L64.5762 18.5657V14.8608V7.12202V0C64.1127 0 63.7067 0.310646 63.5654 0.76291L63.3403 1.50298L63.1373 2.15625L63.0931 2.30244Z" fill="#FFC399"/>
        <path d="M66.0593 2.30244L67.8249 8.04025H73.3025H73.404H73.991H74.8164C75.271 8.04025 75.6727 8.3372 75.8183 8.78032C75.964 9.22345 75.8228 9.71226 75.4652 10.0001L74.8164 10.5254L74.353 10.9L74.2735 10.964L69.6919 14.6506L71.4619 20.4067L71.5104 20.5666L71.7179 21.2427L71.9386 21.9599C72.0798 22.4168 71.9165 22.9193 71.5369 23.1934C71.1573 23.4675 70.6453 23.4538 70.279 23.1614L69.7052 22.7L69.1667 22.2615L69.0387 22.1564L64.5763 18.5657V14.8608V7.12202V0C65.0397 0 65.4458 0.310646 65.5871 0.76291L65.8122 1.50298L66.0152 2.15625L66.0593 2.30244Z" fill="#FFC399"/>
    </g>
    <g clip-path="url(#clip2_457_14488)">
        <path d="M98.2097 34.5554C99.0819 35.6359 99.0148 37.1891 98.0253 38.1852L82.7119 53.5825C81.8397 54.4604 81.8397 55.8786 82.7119 56.7565C83.5337 57.5837 84.8588 57.6344 85.7477 56.8578L102.42 42.3216C103.476 41.393 105.087 41.4436 106.076 42.4566C107.066 43.4696 107.133 45.0566 106.21 46.1371L91.7691 62.9187C90.9975 63.8135 91.0479 65.1473 91.8697 65.9746C92.7419 66.8525 94.1508 66.8525 95.023 65.9746L110.336 50.5604C111.309 49.5812 112.869 49.4968 113.942 50.3747C115.016 51.2526 115.234 52.8059 114.479 53.9539L102.571 71.9342C99.4509 76.6446 94.2011 79.464 88.5823 79.464C85.3452 79.464 82.2255 78.5355 79.5418 76.8134L38.1974 118.413C36.1008 120.523 32.696 120.523 30.5994 118.413C28.5028 116.303 28.5028 112.875 30.5994 110.765L71.9271 69.1823C70.2163 66.481 69.2938 63.3239 69.2938 60.0824C69.2938 54.4266 72.1116 49.1423 76.7744 46.002L94.6372 34.0151C95.7777 33.2385 97.3208 33.4749 98.193 34.5554H98.2097Z" fill="#CC5400"/>
        <path d="M62.8195 70.7189L27.1107 34.792C26.3391 33.9985 25.2657 33.5596 24.1587 33.5596C22.2802 33.5596 20.6364 34.8258 20.2171 36.666C19.4288 40.0764 18.3051 45.6309 18.3051 49.7672C18.3051 63.8307 26.3894 71.7994 39.9249 85.1201C41.0152 86.2006 42.1557 87.3149 43.3298 88.4798C43.6484 88.7837 43.9671 89.0707 44.3194 89.3408L62.8195 70.7189ZM70.4175 93.646L95.0229 118.413C97.1195 120.524 100.524 120.524 102.621 118.413C104.717 116.303 104.717 112.876 102.621 110.765L77.9987 85.998L70.4007 93.646H70.4175Z" fill="#FFE1CC"/>
        <g clip-path="url(#clip3_457_14488)">
            <path d="M55.8814 38.3122L54.6134 42.5531H50.6663H50.5932H50.1706H49.5763C49.249 42.5531 48.9598 42.7726 48.8549 43.1002C48.75 43.4277 48.8517 43.789 49.1091 44.0017L49.5763 44.39L49.91 44.6669L49.9672 44.7142L53.2627 47.4391L51.9915 51.6936L51.9566 51.8118L51.804 52.3115L51.6451 52.8416C51.5435 53.1793 51.661 53.5507 51.9343 53.7533C52.2076 53.9559 52.5763 53.9458 52.8401 53.7297L53.2532 53.3886L53.6441 53.0678L53.7362 52.9902L56.9492 50.3328V47.5944V41.8745V36.6104C56.6155 36.6104 56.3231 36.84 56.2214 37.1742L56.0593 37.7212L55.9132 38.2041L55.8814 38.3122Z" fill="#FFC399"/>
            <path d="M58.017 38.3122L59.2882 42.5531H63.2321H63.3052H63.7278H64.3221C64.6494 42.5531 64.9386 42.7726 65.0435 43.1002C65.1484 43.4277 65.0467 43.789 64.7893 44.0017L64.3221 44.39L63.9884 44.6669L63.9312 44.7142L60.6325 47.4391L61.9068 51.6936L61.9418 51.8118L62.0912 52.3115L62.2501 52.8416C62.3518 53.1793 62.2342 53.5507 61.9609 53.7533C61.6876 53.9559 61.3189 53.9458 61.0552 53.7297L60.642 53.3886L60.2543 53.0645L60.1621 52.9868L56.9492 50.3328V47.5944V41.8745V36.6104C57.2829 36.6104 57.5753 36.84 57.677 37.1742L57.839 37.7212L57.9852 38.2041L58.017 38.3122Z" fill="#FFC399"/>
        </g>
    </g>
    <g clip-path="url(#clip4_457_14488)">
        <path d="M8.08474 96.278L6.81674 100.519H2.8697H2.79661H2.37394H1.77966C1.45233 100.519 1.16313 100.738 1.05826 101.066C0.953389 101.394 1.05508 101.755 1.3125 101.968L1.77966 102.356L2.11335 102.633L2.17055 102.68L5.4661 105.405L4.19491 109.659L4.15996 109.778L4.00741 110.277L3.84852 110.807C3.74682 111.145 3.86441 111.517 4.13771 111.719C4.41102 111.922 4.77966 111.912 5.04343 111.695L5.45657 111.354L5.84746 111.034L5.93962 110.956L9.15254 108.299V105.56V99.8403V94.5762C8.81885 94.5762 8.52648 94.8058 8.42479 95.1401L8.26271 95.6871L8.11652 96.1699L8.08474 96.278Z" fill="#FFC399"/>
        <path d="M10.2204 96.278L11.4916 100.519H15.4354H15.5085H15.9312H16.5255C16.8528 100.519 17.142 100.738 17.2469 101.066C17.3517 101.394 17.25 101.755 16.9926 101.968L16.5255 102.356L16.1918 102.633L16.1346 102.68L12.8359 105.405L14.1102 109.659L14.1452 109.778L14.2945 110.277L14.4534 110.807C14.5551 111.145 14.4375 111.517 14.1642 111.719C13.8909 111.922 13.5223 111.912 13.2585 111.695L12.8454 111.354L12.4577 111.03L12.3655 110.953L9.15259 108.299V105.56V99.8403V94.5762C9.48627 94.5762 9.77865 94.8058 9.88034 95.1401L10.0424 95.6871L10.1886 96.1699L10.2204 96.278Z" fill="#FFC399"/>
    </g>
    <defs>
        <clipPath id="clip0_457_14488">
            <rect width="25.4237" height="23.3898" fill="white" transform="translate(103.729 80.3389)"/>
        </clipPath>
        <clipPath id="clip1_457_14488">
            <rect width="25.4237" height="23.3898" fill="white" transform="translate(51.8644)"/>
        </clipPath>
        <clipPath id="clip2_457_14488">
            <rect width="96.6102" height="86.4407" fill="white" transform="translate(18.3051 33.5596)"/>
        </clipPath>
        <clipPath id="clip3_457_14488">
            <rect width="18.3051" height="17.2881" fill="white" transform="translate(47.7966 36.6104)"/>
        </clipPath>
        <clipPath id="clip4_457_14488">
            <rect width="18.3051" height="17.2881" fill="white" transform="translate(0 94.5762)"/>
        </clipPath>
    </defs>
</svg>
