<svg width="9" height="13" viewBox="0 0 9 13" fill="none" xmlns="http://www.w3.org/2000/svg">
    <path d="M4.6716 11.7812V8.88672C5.79894 8.69629 6.74093 7.98535 7.25382 7.01797C7.59913 6.39844 7.77179 5.66719 7.70324 4.89277L7.29952 0.368164C7.28175 0.157422 7.10656 0 6.90089 0H6.70285H1.42159H1.22355C1.01788 0 0.842688 0.157422 0.822376 0.368164L0.421204 4.89023C0.352649 5.66465 0.522767 6.3959 0.870618 7.01543C1.38351 7.98535 2.3255 8.69629 3.45284 8.88672V11.7812H1.82784C1.80245 11.7812 1.77452 11.7838 1.74913 11.7863C1.44952 11.8244 1.21847 12.0809 1.21847 12.3906C1.21847 12.7004 1.44952 12.9543 1.74659 12.9949C1.76945 12.9975 1.79484 13 1.82023 13H1.82784H4.06222H6.2966C6.32199 13 6.34992 12.9975 6.37531 12.9949C6.67492 12.9568 6.90597 12.7004 6.90597 12.3906C6.90597 12.0809 6.67492 11.827 6.37784 11.7863C6.35499 11.7838 6.3296 11.7812 6.30421 11.7812H6.2966H4.6716ZM1.98527 1.21875H6.13917L6.29913 3.25H1.82531L1.98527 1.21875ZM1.72882 4.46875H6.39562L6.44894 5.13652C6.55812 6.52793 5.4587 7.71875 4.06222 7.71875C2.66574 7.71875 1.56632 6.52793 1.6755 5.13652L1.72882 4.46875Z" fill="#EE6200"/>
</svg>