<svg width="13" height="14" viewBox="0 0 13 14" fill="none" xmlns="http://www.w3.org/2000/svg">
    <path d="M1.74714 0.731033C1.78815 0.370121 1.52841 0.0474881 1.16749 0.00647543C0.806583 -0.0345372 0.48395 0.22521 0.442937 0.586121L0.00546835 4.52334L0 4.55888V4.59443V5.0319C0 6.36071 1.07727 7.43797 2.40608 7.43797H2.62481V13.3438C2.62481 13.7074 2.91737 14 3.28101 14C3.64466 14 3.93722 13.7074 3.93722 13.3438V7.43797H4.15595C5.48476 7.43797 6.56203 6.36071 6.56203 5.0319V4.59443V4.55888L6.55929 4.52334L6.12183 0.586121C6.08081 0.22521 5.75545 -0.0345372 5.39453 0.00374125C5.03362 0.0420198 4.77388 0.367387 4.81489 0.728299L5.24962 4.62997V5.0319C5.24962 5.63615 4.7602 6.12557 4.15595 6.12557H3.28101H2.40608C1.80182 6.12557 1.31241 5.63615 1.31241 5.0319V4.62997L1.74714 0.731033ZM3.93722 0.65721C3.93722 0.293564 3.64466 0.00100707 3.28101 0.00100707C2.91737 0.00100707 2.62481 0.293564 2.62481 0.65721V4.59443C2.62481 4.95807 2.91737 5.25063 3.28101 5.25063C3.64466 5.25063 3.93722 4.95807 3.93722 4.59443V0.65721ZM8.96811 4.81316C8.96811 3.23554 9.56142 2.39068 10.1001 1.92313C10.3106 1.74268 10.5239 1.60597 10.718 1.50754V6.78177V8.31291H9.40557C9.16497 8.31291 8.96811 8.11605 8.96811 7.87544V4.81316ZM10.718 9.62532V13.3438C10.718 13.7074 11.0105 14 11.3742 14C11.7378 14 12.0304 13.7074 12.0304 13.3438V9.62532V8.31291V6.78177V0.875944C12.0304 0.391995 11.6394 0.00100707 11.1554 0.00100707C10.718 0.00100707 7.6557 0.875944 7.6557 4.81316V7.87544C7.6557 8.84061 8.44041 9.62532 9.40557 9.62532H10.718Z" fill="#EE6200"/>
</svg>
