<svg width="18" height="18" viewBox="0 0 18 18" fill="none" xmlns="http://www.w3.org/2000/svg">
    <path d="M6.75 2.8125V5.90625H16.3125V3.375C16.3125 3.06562 16.0594 2.8125 15.75 2.8125H6.75ZM5.0625 2.8125H2.25C1.94062 2.8125 1.6875 3.06562 1.6875 3.375V5.90625H5.0625V2.8125ZM1.6875 7.59375V10.4062H5.0625V7.59375H1.6875ZM1.6875 12.0938V14.625C1.6875 14.9344 1.94062 15.1875 2.25 15.1875H5.0625V12.0938H1.6875ZM6.75 15.1875H15.75C16.0594 15.1875 16.3125 14.9344 16.3125 14.625V12.0938H6.75V15.1875ZM16.3125 10.4062V7.59375H6.75V10.4062H16.3125ZM0 3.375C0 2.13398 1.00898 1.125 2.25 1.125H15.75C16.991 1.125 18 2.13398 18 3.375V14.625C18 15.866 16.991 16.875 15.75 16.875H2.25C1.00898 16.875 0 15.866 0 14.625V3.375Z" fill="#4D4D4D"/>
</svg>
