<svg width="80" height="81" viewBox="0 0 80 81" fill="none" xmlns="http://www.w3.org/2000/svg">
    <circle cx="40" cy="40" r="40" fill="#EE6200"/>
    <path fill-rule="evenodd" clip-rule="evenodd" d="M14.8442 71.1548L40.194 50.0101L64.0307 71.9316C57.0753 77.1872 48.361 80.2164 38.9687 79.9892C29.8173 79.7679 21.4582 76.4898 14.8442 71.1548Z" fill="#CC5400"/>
    <g clip-path="url(#clip0_432_6718)">
        <path d="M42.1159 61.7143C46.6962 55.9821 57.1426 42.0893 57.1426 34.2857C57.1426 24.8214 49.4641 17.1428 39.9998 17.1428C30.5355 17.1428 22.8569 24.8214 22.8569 34.2857C22.8569 42.0893 33.3034 55.9821 37.8837 61.7143C38.9819 63.0803 41.0176 63.0803 42.1159 61.7143ZM39.9998 28.5714C41.5153 28.5714 42.9688 29.1734 44.0404 30.2451C45.112 31.3167 45.7141 32.7702 45.7141 34.2857C45.7141 35.8012 45.112 37.2547 44.0404 38.3263C42.9688 39.3979 41.5153 40 39.9998 40C38.4843 40 37.0308 39.3979 35.9592 38.3263C34.8875 37.2547 34.2855 35.8012 34.2855 34.2857C34.2855 32.7702 34.8875 31.3167 35.9592 30.2451C37.0308 29.1734 38.4843 28.5714 39.9998 28.5714Z" fill="white"/>
    </g>
    <defs>
        <clipPath id="clip0_432_6718">
            <rect width="34.2857" height="45.7143" fill="white" transform="translate(22.8569 17.1428)"/>
        </clipPath>
    </defs>
</svg>
