<svg width="14" height="12" viewBox="0 0 14 12" fill="none" xmlns="http://www.w3.org/2000/svg">
    <path d="M0.111683 0.202053C0.291055 -0.0254432 0.621362 -0.067005 0.848858 0.112367L2.52227 1.42266L2.62945 0.466736C2.66008 0.180178 2.92038 -0.0276307 3.20913 0.00299378C3.49787 0.0336182 3.70568 0.293926 3.67287 0.582671L3.49569 2.18389L4.37505 2.87732V0.525797C4.37505 0.234865 4.6091 0.000806322 4.90004 0.000806322C5.19097 0.000806322 5.42503 0.234865 5.42503 0.525797V3.67574C5.42503 3.68449 5.42503 3.69105 5.42503 3.6998L6.37001 4.44135C6.43564 4.31886 6.47501 4.17667 6.47501 4.02574V3.70418L6.1272 0.584859C6.09439 0.296114 6.3022 0.0379932 6.59094 0.00518125C6.87969 -0.0276307 7.13781 0.180178 7.17062 0.468923L7.52062 3.61887L7.5228 3.6473V3.67574V4.02574C7.5228 4.41948 7.40468 4.78697 7.20125 5.09322L8.39998 6.03164V3.85074C8.39998 0.700794 10.8499 0.000806322 11.1999 0.000806322C11.5871 0.000806322 11.8999 0.313613 11.8999 0.700794V5.42571V6.65069V7.70067V8.77472L13.7986 10.2622C14.0261 10.4416 14.0677 10.7719 13.8883 10.9994C13.7089 11.2269 13.3786 11.2684 13.1511 11.089L0.201369 0.939227C-0.0261266 0.759856 -0.0676884 0.429549 0.111683 0.202053ZM2.27508 4.02574V3.8923L5.42503 6.37507V10.6756C5.42503 10.9666 5.19097 11.2006 4.90004 11.2006C4.6091 11.2006 4.37505 10.9666 4.37505 10.6756V5.9507H4.20005C3.13694 5.9507 2.27508 5.08884 2.27508 4.02574ZM11.3684 11.2006H11.3815H11.3749H11.3684ZM9.44996 3.85074V6.3007C9.44996 6.49319 9.60745 6.65069 9.79995 6.65069H10.8499V5.42571V1.2061C10.6946 1.28485 10.524 1.39203 10.3556 1.53859C9.92464 1.91265 9.44996 2.58857 9.44996 3.85074Z" fill="#CCCCCC"/>
</svg>
