<svg width="80" height="80" viewBox="0 0 80 80" fill="none" xmlns="http://www.w3.org/2000/svg">
    <circle cx="40" cy="40" r="40" fill="#FFD0CE"/>
    <g clip-path="url(#clip0_432_6555)">
        <path d="M42.4375 26.5625C42.4375 25.2117 41.3508 24.125 40 24.125C38.6492 24.125 37.5625 25.2117 37.5625 26.5625V37.9375C37.5625 39.2883 38.6492 40.375 40 40.375C41.3508 40.375 42.4375 39.2883 42.4375 37.9375V26.5625ZM40 50.125C40.862 50.125 41.6886 49.7826 42.2981 49.1731C42.9076 48.5636 43.25 47.737 43.25 46.875C43.25 46.013 42.9076 45.1864 42.2981 44.5769C41.6886 43.9674 40.862 43.625 40 43.625C39.138 43.625 38.3114 43.9674 37.7019 44.5769C37.0924 45.1864 36.75 46.013 36.75 46.875C36.75 47.737 37.0924 48.5636 37.7019 49.1731C38.3114 49.7826 39.138 50.125 40 50.125Z" fill="#CE0700"/>
        <path d="M14 22.5C14 18.9148 16.9148 16 20.5 16H59.5C63.0852 16 66 18.9148 66 22.5V51.75C66 55.3352 63.0852 58.25 59.5 58.25H45.4133L32.85 67.675C32.3625 68.0406 31.7023 68.1016 31.1438 67.8273C30.5852 67.5531 30.25 66.9945 30.25 66.375V58.25H20.5C16.9148 58.25 14 55.3352 14 51.75V22.5ZM40 24.125C38.6492 24.125 37.5625 25.2117 37.5625 26.5625V37.9375C37.5625 39.2883 38.6492 40.375 40 40.375C41.3508 40.375 42.4375 39.2883 42.4375 37.9375V26.5625C42.4375 25.2117 41.3508 24.125 40 24.125ZM43.25 46.875C43.25 46.013 42.9076 45.1864 42.2981 44.5769C41.6886 43.9674 40.862 43.625 40 43.625C39.138 43.625 38.3114 43.9674 37.7019 44.5769C37.0924 45.1864 36.75 46.013 36.75 46.875C36.75 47.737 37.0924 48.5636 37.7019 49.1731C38.3114 49.7826 39.138 50.125 40 50.125C40.862 50.125 41.6886 49.7826 42.2981 49.1731C42.9076 48.5636 43.25 47.737 43.25 46.875Z" fill="white"/>
    </g>
    <defs>
        <clipPath id="clip0_432_6555">
            <rect width="52" height="52" fill="white" transform="translate(14 16)"/>
        </clipPath>
    </defs>
</svg>
