<svg width="80" height="80" viewBox="0 0 80 80" fill="none" xmlns="http://www.w3.org/2000/svg">
    <circle cx="40" cy="40" r="40" fill="#BEEFAD"/>
    <path d="M50.9236 31.6302L39.3681 43.2618C38.5194 44.116 37.1472 44.116 36.3076 43.2618L30.5299 37.446C29.6812 36.5918 29.6812 35.2105 30.5299 34.3654C31.3785 33.5203 32.7507 33.5112 33.5903 34.3654L37.8333 38.6364L47.8542 28.5405C48.7028 27.6864 50.075 27.6864 50.9146 28.5405C51.7542 29.3947 51.7632 30.776 50.9146 31.6211L50.9236 31.6302ZM18.3333 43.1709H22.6667V50.4406H21.2222C20.4278 50.4406 19.7778 51.0949 19.7778 51.8946C19.7778 52.6942 20.4278 53.3485 21.2222 53.3485H58.7778C59.5722 53.3485 60.2222 52.6942 60.2222 51.8946C60.2222 51.0949 59.5722 50.4406 58.7778 50.4406H57.3333V43.1709H61.6667C64.059 43.1709 66 45.1246 66 47.5327V56.2564C66 58.6645 64.059 60.6183 61.6667 60.6183H18.3333C15.941 60.6183 14 58.6645 14 56.2564V47.5327C14 45.1246 15.941 43.1709 18.3333 43.1709Z" fill="#45AF21"/>
    <path d="M26.9998 19.9077C24.6075 19.9077 22.6665 21.8615 22.6665 24.2696V53.3485H57.3332V24.2696C57.3332 21.8615 55.3922 19.9077 52.9998 19.9077H26.9998ZM50.9235 31.6302L39.3679 43.2617C38.5193 44.1159 37.1471 44.1159 36.3075 43.2617L30.5297 37.446C29.6811 36.5918 29.6811 35.2105 30.5297 34.3654C31.3783 33.5203 32.7505 33.5112 33.5901 34.3654L37.8332 38.6364L47.854 28.5405C48.7026 27.6863 50.0748 27.6863 50.9144 28.5405C51.754 29.3947 51.763 30.776 50.9144 31.6211L50.9235 31.6302Z" fill="white"/>
</svg>
