<svg width="80" height="80" viewBox="0 0 80 80" fill="none" xmlns="http://www.w3.org/2000/svg">
<circle cx="40" cy="40" r="40" fill="#FFE1CC"/>
<g clip-path="url(#clip0_1386_8330)">
<path d="M35.125 20.5C37.0456 20.5 38.9474 20.8783 40.7217 21.6133C42.4961 22.3482 44.1084 23.4255 45.4664 24.7836C46.8245 26.1416 47.9018 27.7539 48.6367 29.5283C49.3717 31.3026 49.75 33.2044 49.75 35.125C49.75 37.0456 49.3717 38.9474 48.6367 40.7217C47.9018 42.4961 46.8245 44.1084 45.4664 45.4664C44.1084 46.8245 42.4961 47.9018 40.7217 48.6367C38.9474 49.3717 37.0456 49.75 35.125 49.75C33.2044 49.75 31.3026 49.3717 29.5283 48.6367C27.7539 47.9018 26.1416 46.8245 24.7836 45.4664C23.4255 44.1084 22.3482 42.4961 21.6133 40.7217C20.8783 38.9474 20.5 37.0456 20.5 35.125C20.5 33.2044 20.8783 31.3026 21.6133 29.5283C22.3482 27.7539 23.4255 26.1416 24.7836 24.7836C26.1416 23.4255 27.7539 22.3482 29.5283 21.6133C31.3026 20.8783 33.2044 20.5 35.125 20.5ZM35.125 56.25C40.7277 56.25 46.1009 54.0243 50.0626 50.0626C54.0243 46.1009 56.25 40.7277 56.25 35.125C56.25 29.5223 54.0243 24.1491 50.0626 20.1874C46.1009 16.2257 40.7277 14 35.125 14C29.5223 14 24.1491 16.2257 20.1874 20.1874C16.2257 24.1491 14 29.5223 14 35.125C14 40.7277 16.2257 46.1009 20.1874 50.0626C24.1491 54.0243 29.5223 56.25 35.125 56.25Z" fill="#CC5400"/>
<path d="M47.5867 52.1877L60.4546 65.0455C61.7242 66.315 63.7859 66.315 65.0554 65.0455C66.325 63.776 66.325 61.7143 65.0554 60.4447L52.1874 47.5869C50.8976 49.3439 49.3437 50.8979 47.5867 52.1877Z" fill="white"/>
</g>
<defs>
<clipPath id="clip0_1386_8330">
<rect width="52" height="52" fill="white" transform="translate(14 14)"/>
</clipPath>
</defs>
</svg>
