<svg width="12" height="12" viewBox="0 0 12 12" fill="none" xmlns="http://www.w3.org/2000/svg">
    <path d="M6.0002 0C6.20938 0 6.40037 0.118234 6.49132 0.306954L8.0511 3.51974L11.5345 4.0336C11.7391 4.06316 11.9096 4.20641 11.9733 4.40422C12.037 4.60204 11.9847 4.81577 11.8391 4.96129L9.31303 7.46694L9.90874 11.0049C9.94285 11.2095 9.85872 11.4164 9.69047 11.5392C9.52221 11.662 9.29711 11.6756 9.11521 11.5779L6.0002 9.91348L2.88746 11.5756C2.70328 11.6733 2.48046 11.6597 2.3122 11.5369C2.14394 11.4141 2.05754 11.2072 2.09165 11.0026L2.68737 7.46467L0.161249 4.96129C0.0134568 4.81577 -0.0365653 4.59976 0.0270992 4.40422C0.0907637 4.20868 0.261294 4.06543 0.46593 4.0336L3.94929 3.51974L5.50907 0.306954C5.60229 0.118234 5.79101 0 6.0002 0ZM6.0002 1.79625L4.80649 4.25643C4.72691 4.41786 4.57457 4.53155 4.39494 4.55884L1.70511 4.95446L3.65825 6.88941C3.78331 7.01447 3.84242 7.19182 3.81287 7.3669L3.3513 10.0886L5.74327 8.81072C5.9047 8.72431 6.09797 8.72431 6.25713 8.81072L8.6491 10.0886L8.1898 7.36917C8.16024 7.19409 8.21709 7.01674 8.34442 6.89169L10.2976 4.95674L7.60773 4.55884C7.43037 4.53155 7.27576 4.42014 7.19618 4.25643L6.0002 1.79625Z" fill="#EE6200"/>
</svg>